<svg width="120" height="120" viewBox="0 0 120 120" fill="none" xmlns="http://www.w3.org/2000/svg">
<rect width="120" height="120" rx="50" fill="#D7D6D4"/>
<path d="M57.688 74.112C57.688 66.368 52.12 61.952 46.744 61.376V61.248C51.544 60.224 54.744 56.576 54.744 50.432C54.744 43.136 48.472 38.08 39.448 38.08H21.016V88H40.728C50.904 88 57.688 82.816 57.688 74.112ZM47.512 51.84C47.512 56.768 43.928 59.008 39.128 59.008H28.312V44.032H38.104C42.52 44.032 47.512 46.208 47.512 51.84ZM50.456 73.216C50.456 78.848 45.976 81.856 39.768 81.856H28.312V64.768H39.64C44.888 64.768 50.456 67.328 50.456 73.216Z" fill="#4E0B12"/>
<path d="M103.712 79.36L99.168 74.688C96.928 79.488 91.68 82.56 86.24 82.56C78.048 82.56 70.752 76.288 70.752 62.784C70.752 50.944 77.536 43.392 86.048 43.392C91.68 43.392 96.416 46.528 98.528 51.008L103.264 46.528C100.576 41.024 94.368 36.928 85.536 36.928C72.096 36.928 63.008 47.424 63.008 62.784C63.008 79.232 72.16 89.152 85.728 89.152C94.24 89.152 100.704 85.184 103.712 79.36Z" fill="#0F1120"/>
</svg>
